<svg width="20" height="29" viewBox="0 0 20 29" fill="none" xmlns="http://www.w3.org/2000/svg">
<path d="M10.2797 28.0503C9.76038 27.3363 9.26658 26.6478 8.77277 25.9508C7.01892 23.4943 5.23952 21.0548 3.66445 18.4623C2.58637 16.7549 1.72821 14.9186 1.11028 12.9968C0.668109 11.6532 0.531902 10.228 0.711597 8.8251C0.891291 7.42223 1.38236 6.0771 2.14898 4.88781C2.91853 3.59832 3.99144 2.51564 5.27473 1.7336C6.55801 0.95155 8.01296 0.493728 9.51348 0.399806C11.8835 0.198649 14.2435 0.886677 16.1327 2.32953C18.0218 3.77238 19.3045 5.86645 19.7301 8.20281C20.0544 10.1752 19.8397 12.1985 19.1086 14.0593C18.4145 15.8991 17.4906 17.6441 16.3586 19.2528C14.5963 21.8538 12.7828 24.4293 10.9949 27.0133L10.2797 28.0503ZM10.2797 13.8553C11.056 13.857 11.8153 13.6288 12.4617 13.1996C13.1081 12.7705 13.6125 12.1596 13.9111 11.4442C14.2097 10.7288 14.2892 9.94113 14.1394 9.18069C13.9896 8.42025 13.6173 7.72123 13.0696 7.17204C12.5219 6.62284 11.8233 6.24812 11.0623 6.09528C10.3013 5.94243 9.51194 6.01832 8.79412 6.31335C8.07629 6.60838 7.46222 7.10929 7.02954 7.75275C6.59687 8.3962 6.36503 9.15331 6.36335 9.92831C6.36331 10.9639 6.77304 11.9577 7.50335 12.6932C8.23366 13.4287 9.22541 13.8463 10.2627 13.8553H10.2797Z" fill="#D2451E"/>
</svg>
