<svg width="127" height="127" viewBox="0 0 127 127" fill="none" xmlns="http://www.w3.org/2000/svg">
<path d="M126.209 24.165L24.165 1L1.00001 103.044L103.044 126.209L126.209 24.165Z" fill="#44281C" stroke="#F1EFED" stroke-miterlimit="10"/>
<path d="M115.674 38.8313C115.546 38.7774 115.409 38.7505 115.271 38.7524C115.132 38.7543 114.996 38.7848 114.87 38.8422C114.744 38.8995 114.631 38.9824 114.539 39.0855C114.447 39.1886 114.377 39.3098 114.334 39.4413C112.777 44.0752 110.525 48.4453 107.654 52.4013C107.204 50.6013 106.584 48.0313 106.034 45.7213C107.795 43.3324 109.306 40.769 110.544 38.0713C110.62 37.8819 110.647 37.6761 110.623 37.4733C110.598 37.2705 110.523 37.0771 110.404 36.9113C110.292 36.7506 110.142 36.62 109.968 36.531C109.793 36.442 109.599 36.3975 109.404 36.4013L105.614 36.7013C105.181 36.7283 104.76 36.8487 104.378 37.0541C103.997 37.2595 103.664 37.5451 103.404 37.8913C103.095 38.3818 102.889 38.9297 102.798 39.5021C102.707 40.0744 102.733 40.6593 102.874 41.2213C103.034 42.0713 103.324 43.4213 103.684 44.9613C101.52 47.8568 99.053 50.5119 96.3237 52.8813L99.5737 38.5413C99.6318 38.2622 99.5919 37.9715 99.4607 37.7184C99.3296 37.4652 99.1152 37.2649 98.8537 37.1513C98.7335 37.0981 98.6041 37.069 98.4727 37.0658C98.3413 37.0626 98.2106 37.0853 98.088 37.1327C97.9654 37.1801 97.8533 37.2511 97.7582 37.3418C97.6631 37.4326 97.5868 37.5411 97.5337 37.6613C95.0767 43.7027 91.3688 49.1555 86.6537 53.6613L89.7637 39.9313L91.4037 39.7813C91.5446 39.7666 91.6807 39.722 91.8031 39.6507C91.9255 39.5793 92.0314 39.4827 92.1136 39.3674C92.1959 39.252 92.2527 39.1205 92.2803 38.9816C92.3079 38.8426 92.3056 38.6994 92.2737 38.5613C92.2209 38.272 92.0653 38.0114 91.8356 37.8277C91.6059 37.6439 91.3176 37.5493 91.0237 37.5613L82.6737 38.3413C82.4683 38.365 82.2754 38.4518 82.1214 38.5897C81.9674 38.7276 81.8599 38.9098 81.8137 39.1113C80.3284 45.1549 77.3939 50.746 73.2637 55.4013C72.9437 53.6113 72.5937 51.1613 72.2637 49.0413C74.174 46.4626 75.7781 43.6705 77.0437 40.7213C77.1112 40.5325 77.1319 40.3302 77.104 40.1316C77.0761 39.9331 77.0005 39.7443 76.8837 39.5813C76.772 39.4212 76.6219 39.2915 76.4473 39.2042C76.2726 39.1168 76.0788 39.0746 75.8837 39.0813L72.0937 39.3813C71.6667 39.4201 71.2529 39.5499 70.8803 39.7621C70.5077 39.9743 70.1849 40.2639 69.9337 40.6113C69.6182 41.1045 69.4082 41.6576 69.317 42.2359C69.2257 42.8141 69.2553 43.405 69.4037 43.9713C69.5637 44.8513 69.7837 46.4213 70.0337 48.2513C68.0118 50.9509 65.7126 53.4311 63.1737 55.6513L69.0437 29.7513C69.2237 29.0513 69.4037 28.3513 69.5637 27.6713L91.2037 25.1913C91.3441 25.1731 91.479 25.1253 91.5996 25.051C91.7201 24.9767 91.8235 24.8777 91.9029 24.7605C91.9823 24.6433 92.0359 24.5105 92.0602 24.371C92.0845 24.2315 92.0788 24.0885 92.0437 23.9513C91.9885 23.6594 91.8295 23.3972 91.596 23.2134C91.3626 23.0296 91.0704 22.9365 90.7737 22.9513L70.1137 25.3113C70.2137 24.8613 70.2937 24.4313 70.3737 24.0113L71.2237 20.2513C71.2806 19.9569 71.2316 19.6518 71.0851 19.3901C70.9387 19.1283 70.7044 18.9269 70.4237 18.8213C70.2912 18.7757 70.1506 18.7584 70.011 18.7706C69.8715 18.7827 69.736 18.8241 69.6134 18.892C69.4909 18.9599 69.3839 19.0528 69.2996 19.1646C69.2152 19.2765 69.1553 19.4048 69.1237 19.5413L68.4237 22.6413C68.3926 22.7085 68.3692 22.779 68.3537 22.8513L67.7337 25.5813L63.5737 26.0613C63.4333 26.0795 63.2983 26.1274 63.1778 26.2016C63.0572 26.2759 62.9538 26.3749 62.8744 26.4922C62.795 26.6094 62.7414 26.7421 62.7172 26.8816C62.6929 27.0211 62.6985 27.1642 62.7337 27.3013C62.7674 27.5251 62.8602 27.7357 63.0026 27.9115C63.145 28.0873 63.3318 28.2219 63.5437 28.3013C63.691 28.3537 63.8485 28.3709 64.0037 28.3513L67.2037 27.9813L66.8237 29.6213C65.6937 33.9013 64.3237 38.2413 63.6037 40.1013C63.3937 40.6313 63.1937 41.1713 62.9937 41.7013C60.664 47.4001 56.9812 52.4456 52.2637 56.4013L55.4837 42.2113C55.5399 41.9323 55.4991 41.6424 55.3682 41.3897C55.2373 41.1369 55.024 40.9364 54.7637 40.8213C54.6371 40.7635 54.4999 40.7326 54.3607 40.7309C54.2216 40.7291 54.0836 40.7563 53.9556 40.8109C53.8276 40.8655 53.7124 40.9462 53.6173 41.0479C53.5223 41.1496 53.4495 41.2699 53.4037 41.4013C50.9728 47.3474 47.2971 52.7041 42.6237 57.1113L45.6837 43.6413L47.1437 43.5113C47.2844 43.4977 47.4206 43.4543 47.5434 43.3841C47.6661 43.3139 47.7726 43.2185 47.8557 43.1042C47.9389 42.9898 47.9969 42.8592 48.0258 42.7208C48.0548 42.5824 48.054 42.4394 48.0237 42.3013C47.9711 42.0137 47.817 41.7546 47.5894 41.571C47.3618 41.3875 47.0759 41.2918 46.7837 41.3013L38.6137 41.9813C38.4083 42.005 38.2154 42.0918 38.0614 42.2297C37.9074 42.3676 37.7999 42.5498 37.7537 42.7513C36.0325 49.6385 33.0524 56.148 28.9637 61.9513C28.7942 62.1964 28.7236 62.4966 28.7663 62.7915C28.809 63.0865 28.9617 63.3543 29.1937 63.5413C29.3067 63.6437 29.4394 63.722 29.5837 63.7713C29.7841 63.834 29.9992 63.832 30.1984 63.7656C30.3977 63.6992 30.5709 63.5717 30.6937 63.4013C34.8413 57.5828 37.8913 51.0557 39.6937 44.1413L43.3937 43.8313L39.7637 59.7413C39.7173 59.9752 39.7378 60.2175 39.8227 60.4403C39.9075 60.6631 40.0535 60.8575 40.2437 61.0013C40.3421 61.0781 40.454 61.1358 40.5737 61.1713C40.7261 61.2257 40.8895 61.2423 41.0497 61.2197C41.2099 61.197 41.3623 61.1358 41.4937 61.0413C45.4628 58.0074 48.8507 54.2808 51.4937 50.0413L49.4937 58.9813C49.4449 59.2153 49.4642 59.4583 49.5492 59.6816C49.6343 59.9049 49.7816 60.0992 49.9737 60.2413C50.1502 60.3808 50.3687 60.4567 50.5937 60.4567C50.8187 60.4567 51.0371 60.3808 51.2137 60.2413C55.9475 56.744 59.9212 52.3212 62.8937 47.2413L62.2637 50.0013C62.254 50.071 62.254 50.1417 62.2637 50.2113L60.4437 58.2113C60.3969 58.4438 60.4172 58.6847 60.5022 58.906C60.5872 59.1273 60.7334 59.3199 60.9237 59.4613C61.0221 59.5405 61.1338 59.6015 61.2537 59.6413C61.4061 59.6957 61.5695 59.7123 61.7297 59.6897C61.8899 59.667 62.0423 59.6058 62.1737 59.5113C65.2594 57.1482 68.0524 54.4256 70.4937 51.4013C70.7575 53.5987 71.1481 55.779 71.6637 57.9313C71.7238 58.1182 71.8264 58.2886 71.9635 58.4292C72.1006 58.5697 72.2684 58.6766 72.4537 58.7413C72.6238 58.7995 72.8065 58.8107 72.9825 58.7737C73.1585 58.7367 73.3213 58.653 73.4537 58.5313C78.4053 53.5172 81.9656 47.2998 83.7837 40.4913L87.4837 40.1713L83.8137 56.4013C83.7644 56.6338 83.7835 56.8755 83.8687 57.0974C83.9539 57.3192 84.1015 57.5116 84.2937 57.6513C84.3899 57.7282 84.498 57.789 84.6137 57.8313C84.7669 57.8843 84.9307 57.8993 85.091 57.8749C85.2512 57.8505 85.4032 57.7875 85.5337 57.6913C89.5212 54.6178 92.9107 50.8386 95.5337 46.5413L93.5337 55.5413C93.4825 55.7743 93.4997 56.0171 93.583 56.2406C93.6664 56.4641 93.8124 56.6588 94.0037 56.8013C94.181 56.9433 94.4015 57.0207 94.6287 57.0207C94.8559 57.0207 95.0763 56.9433 95.2537 56.8013C98.6658 54.2277 101.743 51.2379 104.414 47.9013C105.254 51.4113 106.124 54.9013 106.194 55.1313C106.242 55.3378 106.343 55.5282 106.487 55.6842C106.63 55.8401 106.812 55.9562 107.014 56.0213C107.201 56.0795 107.402 56.0811 107.59 56.0259C107.779 55.9708 107.947 55.8614 108.074 55.7113C108.314 55.4113 113.994 48.3613 116.414 40.3613C116.506 40.06 116.481 39.7349 116.344 39.4512C116.206 39.1675 115.967 38.9461 115.674 38.8313ZM71.5437 43.7513C71.2237 41.9913 72.0837 41.7513 72.4637 41.6713L74.2537 41.5313C73.5213 42.9579 72.7169 44.3463 71.8437 45.6913C71.7237 44.9013 71.6237 44.2313 71.5437 43.7513ZM105.344 42.6313C105.204 41.9813 105.084 41.4213 105.014 41.0013C104.694 39.2413 105.554 39.0013 105.934 38.9213L107.664 38.7813C107.134 39.7713 106.404 41.1013 105.344 42.6313Z" fill="#CF4C18"/>
<path d="M42.2435 37.2814C42.385 37.2634 42.5211 37.2153 42.6425 37.1404C42.7639 37.0655 42.8678 36.9655 42.9474 36.8471C43.027 36.7287 43.0803 36.5947 43.1038 36.454C43.1272 36.3133 43.1203 36.1692 43.0835 36.0314C43.0346 35.7383 42.8787 35.4737 42.6459 35.289C42.4131 35.1043 42.1201 35.0125 41.8235 35.0314L31.4535 36.2214L32.4535 31.6714L57.9835 28.5914C58.1242 28.5721 58.2591 28.5231 58.3793 28.4477C58.4995 28.3722 58.6023 28.272 58.6808 28.1538C58.7593 28.0356 58.8118 27.902 58.8346 27.7619C58.8575 27.6218 58.8503 27.4785 58.8135 27.3414C58.7624 27.0474 58.6044 26.7828 58.37 26.5982C58.1356 26.4136 57.8413 26.3222 57.5435 26.3414L32.9835 29.3414L33.4035 27.5814C33.5202 27.0274 33.5115 26.4544 33.3783 25.9043C33.2451 25.3541 32.9906 24.8406 32.6335 24.4014C32.2782 23.9505 31.821 23.5904 31.2995 23.3505C30.778 23.1106 30.2071 22.9978 29.6335 23.0214C28.7874 23.0644 27.9778 23.3797 27.3255 23.9203C26.6731 24.461 26.2129 25.1979 26.0135 26.0214C25.7981 26.8421 25.8069 27.7057 26.0391 28.5219C26.2713 29.338 26.7183 30.0769 27.3335 30.6614C28.0976 31.4125 29.1047 31.8664 30.1735 31.9414L21.4035 70.6014C21.3451 70.8972 21.3947 71.2042 21.5433 71.4666C21.6919 71.729 21.9297 71.9294 22.2135 72.0314C22.3454 72.0754 22.485 72.0914 22.6234 72.0784C22.7618 72.0654 22.896 72.0237 23.0174 71.956C23.1388 71.8882 23.2447 71.7959 23.3284 71.6849C23.4121 71.5739 23.4718 71.4467 23.5035 71.3114L30.9335 38.5714L42.2435 37.2814ZM30.7035 29.5914H30.4635C30.1464 29.6251 29.8258 29.5879 29.5248 29.4824C29.2239 29.3769 28.9502 29.2057 28.7235 28.9814C28.4243 28.7031 28.2072 28.3479 28.0961 27.9546C27.985 27.5614 27.9841 27.1451 28.0935 26.7514C28.1957 26.3273 28.4338 25.9483 28.7714 25.6721C29.109 25.3959 29.5276 25.2376 29.9635 25.2214C30.13 25.2095 30.2971 25.2334 30.4535 25.2914C30.691 25.3683 30.9 25.5146 31.0535 25.7114C31.1818 25.8666 31.2727 26.0492 31.3195 26.2451C31.3663 26.4409 31.3677 26.6449 31.3235 26.8414L30.7035 29.5914Z" fill="#CF4C18"/>
<path d="M56.3518 38.884C57.0121 38.4924 57.1934 37.5781 56.7567 36.8418C56.3201 36.1055 55.4308 35.826 54.7705 36.2176C54.1102 36.6091 53.9289 37.5235 54.3656 38.2598C54.8022 38.9961 55.6915 39.2755 56.3518 38.884Z" fill="#CF4C18"/>
<path d="M100.448 35.0192C101.108 34.6272 101.288 33.7127 100.851 32.9768C100.414 32.2408 99.5245 31.9619 98.8645 32.354C98.2045 32.746 98.0238 33.6605 98.461 34.3965C98.8982 35.1325 99.7876 35.4113 100.448 35.0192Z" fill="#CF4C18"/>
<path d="M26.1036 64.4014L25.4836 67.1114L20.3336 65.9414L19.8736 67.9414L23.7036 68.8114L23.0836 71.5313L19.2536 70.6614L18.1036 75.7714L14.9236 75.0514L17.7736 62.5114L26.1036 64.4014Z" fill="#F0ACCB"/>
<path d="M26.2336 77.6114L29.0836 65.0814L34.1436 66.2314C35.2424 66.4231 36.2262 67.0277 36.8936 67.9214C37.3897 68.6908 37.5929 69.6128 37.4662 70.5195C37.3396 71.4262 36.8915 72.2573 36.2036 72.8614C35.562 73.3735 34.7739 73.6677 33.9536 73.7014L35.5436 79.7014L31.8936 78.8714L30.6336 73.1714L29.4036 78.3414L26.2336 77.6114ZM31.6636 68.5114L31.1436 70.8414L32.2936 71.1014C33.4036 71.3514 34.0436 71.1014 34.2336 70.2614C34.2802 70.1116 34.2908 69.9531 34.2648 69.7985C34.2387 69.6439 34.1767 69.4976 34.0836 69.3714C33.8716 69.1057 33.5689 68.9276 33.2336 68.8714L31.6636 68.5114Z" fill="#F0ACCB"/>
<path d="M38.2036 80.3314L38.8136 77.6314L41.0036 78.1214L42.6236 71.0014L40.4036 70.5014L41.0236 67.7914L48.5536 69.5014L47.9436 72.2114L45.7636 71.7214L44.1436 78.8414L46.3236 79.3414L45.7136 82.0414L38.2036 80.3314Z" fill="#F0ACCB"/>
<path d="M60.7536 72.2714L60.1336 74.9814L57.2436 74.3214L55.0136 84.1414L51.8436 83.4014L54.0736 73.5814L51.1536 72.9214L51.7636 70.2114L60.7536 72.2714Z" fill="#F0ACCB"/>
<path d="M64.7737 86.6414C63.5689 86.4557 62.4717 85.8414 61.6837 84.9114C61.3665 84.4646 61.155 83.9516 61.0649 83.4112C60.9748 82.8707 61.0086 82.3169 61.1637 81.7914L63.1637 72.7914L66.3737 73.5214L64.3737 82.1114C64.298 82.2974 64.2668 82.4986 64.2826 82.6989C64.2984 82.8991 64.3607 83.0929 64.4646 83.2648C64.5686 83.4367 64.7112 83.582 64.8812 83.689C65.0511 83.7961 65.2437 83.8619 65.4437 83.8814C65.6129 83.9258 65.7896 83.9336 65.962 83.9043C66.1345 83.875 66.2987 83.8092 66.4437 83.7114C66.7601 83.465 66.971 83.1075 67.0337 82.7114L69.0337 74.1214L72.2037 74.8414L70.2037 83.7714C70.1221 84.3173 69.9177 84.8377 69.6059 85.2932C69.2941 85.7488 68.8831 86.1277 68.4037 86.4014C67.2597 86.9063 65.9742 86.9913 64.7737 86.6414Z" fill="#F0ACCB"/>
<path d="M72.0435 88.0114L74.8835 75.4714L79.9535 76.6214C81.0505 76.8171 82.0309 77.4254 82.6935 78.3214C83.1927 79.0891 83.3987 80.0109 83.2739 80.9181C83.149 81.8253 82.7016 82.6571 82.0135 83.2614C81.3719 83.7735 80.5837 84.0678 79.7635 84.1014L81.3535 90.1014L77.7035 89.2714L76.4035 83.6014L75.2335 88.7314L72.0435 88.0114ZM77.4735 78.9114L76.9435 81.2314L78.1035 81.5014C79.2035 81.7514 79.8535 81.5014 80.0335 80.6614C80.0814 80.5124 80.0937 80.3543 80.0694 80.1997C80.0451 80.0451 79.9848 79.8984 79.8935 79.7714C79.6826 79.4976 79.3748 79.315 79.0335 79.2614L77.4735 78.9114Z" fill="#F0ACCB"/>
<path d="M89.4937 91.9714L89.6637 89.2113L87.0037 88.6013L85.9437 91.1614L82.7737 90.4514L88.1137 78.4514L93.1137 79.5914L92.7737 92.6914L89.4937 91.9714ZM90.0037 81.2714L88.0537 86.0214L89.8537 86.4213L90.1837 81.3214L90.0037 81.2714Z" fill="#F0ACCB"/>
<path d="M99.3237 94.4913C98.1126 94.2665 97.0229 93.6133 96.2537 92.6513C95.5281 91.589 95.1763 90.3155 95.2537 89.0313L98.3537 88.8413C98.307 89.5901 98.4336 90.3395 98.7237 91.0313C98.844 91.2846 99.0213 91.5066 99.2416 91.6801C99.4619 91.8535 99.7192 91.9737 99.9937 92.0313C100.362 92.1272 100.751 92.1026 101.104 91.9613C101.249 91.8956 101.377 91.7959 101.476 91.6706C101.575 91.5454 101.643 91.3981 101.674 91.2413C101.711 91.1004 101.716 90.9531 101.69 90.8097C101.665 90.6664 101.608 90.5304 101.524 90.4113C101.32 90.134 101.069 89.8938 100.784 89.7013C100.464 89.4813 100.104 89.2513 99.7137 89.0213C99.3104 88.7869 98.9229 88.5263 98.5537 88.2413C98.188 87.9643 97.8527 87.6492 97.5537 87.3013C97.2491 86.9384 97.0395 86.5054 96.9437 86.0413C96.819 85.5051 96.819 84.9475 96.9437 84.4113C97.0443 83.8695 97.2632 83.3564 97.5847 82.9088C97.9062 82.4611 98.3224 82.0898 98.8037 81.8213C99.8673 81.2721 101.098 81.1402 102.254 81.4513C103.297 81.6601 104.246 82.196 104.964 82.9813C105.646 83.7876 106.043 84.7964 106.094 85.8513L103.034 86.2613C102.98 85.6945 102.806 85.1456 102.524 84.6513C102.29 84.3063 101.932 84.066 101.524 83.9813C100.814 83.8213 100.394 83.9813 100.264 84.6213C100.233 84.754 100.229 84.8917 100.253 85.0258C100.277 85.1599 100.328 85.2877 100.404 85.4013C100.598 85.6867 100.846 85.9313 101.134 86.1213C101.464 86.3413 101.814 86.5713 102.204 86.8013C102.607 87.0358 102.994 87.2963 103.364 87.5813C103.732 87.8554 104.067 88.1708 104.364 88.5213C104.668 88.8843 104.878 89.3173 104.974 89.7813C105.098 90.3175 105.098 90.8751 104.974 91.4113C104.86 91.9849 104.622 92.5266 104.277 92.9983C103.931 93.4699 103.486 93.8601 102.974 94.1413C101.842 94.7037 100.542 94.8283 99.3237 94.4913Z" fill="#F0ACCB"/>
<path d="M20.2935 89.2514L13.6335 87.7314L12.4635 92.8913L19.7735 94.5514L19.3135 95.7014L10.8535 93.7813L13.8535 80.5714L22.1835 82.4613L21.9135 83.6514L14.9135 82.0714L13.9135 86.5414L20.5735 88.0514L20.2935 89.2514Z" fill="#F0ACCB"/>
<path d="M23.4037 92.8314C23.4037 94.5914 24.3137 95.8314 26.4037 96.2714C28.6637 96.7814 29.7937 95.8814 30.0937 94.5314C30.3937 93.1814 29.9537 92.1214 27.3137 90.8114C24.6737 89.5014 23.6137 88.1814 24.0437 86.2914C24.4737 84.4014 26.1737 83.1514 29.0437 83.8014C31.9137 84.4514 32.9137 86.5714 32.7137 88.2714L31.3237 87.9514C31.3237 86.5814 30.7337 85.4014 28.7237 84.9514C26.9537 84.5514 25.7937 85.1414 25.4837 86.5214C25.1737 87.9014 25.8637 88.5914 28.1137 89.7214C31.6437 91.4914 31.9037 93.1114 31.5337 94.7214C31.0737 96.7214 29.2037 98.0914 26.0737 97.3714C22.7537 96.6214 21.8737 94.4514 22.0737 92.5014L23.4037 92.8314Z" fill="#F0ACCB"/>
<path d="M36.4036 85.6913L41.2536 86.7913C43.7436 87.3513 45.1336 89.1213 44.5936 91.5013C44.0536 93.8813 41.9936 94.9513 39.4036 94.4013L36.0336 93.6313L34.7536 99.2413L33.4036 98.9013L36.4036 85.6913ZM36.3236 92.4013L39.7036 93.1713C41.7036 93.6213 42.8136 92.8013 43.1736 91.1713C43.2746 90.8109 43.2957 90.4327 43.2353 90.0633C43.175 89.6939 43.0346 89.3421 42.8241 89.0325C42.6137 88.723 42.3381 88.4632 42.0167 88.2712C41.6953 88.0793 41.3359 87.9599 40.9636 87.9213L37.5036 87.1413L36.3236 92.4013Z" fill="#F0ACCB"/>
<path d="M54.4935 97.0114L47.8235 95.4914L46.6535 100.651L53.9635 102.311L53.5035 103.461L45.0535 101.541L48.0535 88.3314L56.4035 90.2214L56.1035 91.4014L49.1035 89.8214L48.1035 94.2914L54.7735 95.8014L54.4935 97.0114Z" fill="#F0ACCB"/>
<path d="M67.1737 102.751C66.6575 103.838 65.7665 104.703 64.6644 105.186C63.5623 105.669 62.3229 105.738 61.1737 105.381C57.3137 104.501 55.9937 101.041 56.8437 97.3114C57.6537 93.7314 60.3737 90.9414 64.2937 91.8314C67.2937 92.5014 68.5737 94.5614 68.4837 96.8314L67.1337 96.5214C67.1077 95.6501 66.7757 94.8159 66.1961 94.1649C65.6164 93.5139 64.8261 93.0879 63.9637 92.9614C60.8437 92.2514 58.9037 94.8014 58.2737 97.5714C57.6437 100.341 58.2737 103.451 61.4937 104.181C62.3089 104.419 63.1807 104.372 63.9658 104.049C64.751 103.725 65.4026 103.144 65.8137 102.401L67.1737 102.751Z" fill="#F0ACCB"/>
<path d="M73.4035 94.0914L70.4035 107.301L69.0535 107.001L72.0535 93.7814L73.4035 94.0914Z" fill="#F0ACCB"/>
<path d="M76.6336 104.191L74.0936 108.131L72.7336 107.831L80.5236 95.7014L82.1536 96.0714L84.1536 110.421L82.7036 110.091L82.0636 105.401L76.6336 104.191ZM81.9436 104.141C81.4136 100.141 81.1136 98.0814 81.0536 97.0714C80.4936 98.0714 79.1536 100.161 77.3236 103.071L81.9436 104.141Z" fill="#F0ACCB"/>
<path d="M90.7035 98.0114L87.7035 111.221L86.3535 110.921L89.4035 97.7014L90.7035 98.0114Z" fill="#F0ACCB"/>
<path d="M92.5436 108.531C92.5436 110.291 93.4536 111.531 95.5436 111.971C97.8036 112.481 98.9236 111.581 99.2336 110.231C99.5436 108.881 99.0936 107.821 96.4536 106.511C93.8136 105.201 92.7536 103.881 93.1836 101.991C93.6136 100.101 95.3136 98.8513 98.1836 99.5013C101.054 100.151 102.054 102.271 101.844 103.971L100.464 103.661C100.464 102.291 99.8736 101.101 97.8636 100.661C96.0936 100.251 94.9336 100.841 94.6136 102.221C94.2936 103.601 95.0036 104.291 97.2536 105.421C100.784 107.191 101.044 108.811 100.674 110.421C100.214 112.421 98.3436 113.791 95.2136 113.081C91.8936 112.321 91.0136 110.151 91.2136 108.201L92.5436 108.531Z" fill="#F0ACCB"/>
</svg>
