<svg width="1440" height="78" viewBox="0 0 1440 78" fill="none" xmlns="http://www.w3.org/2000/svg">
<path d="M1266.38 45.9053L1394.87 45.9053V61.4134L1266.38 61.4134V45.9053Z" fill="#CE4C19"/>
<path d="M1266.38 15.2048L1394.87 15.2048V30.7129L1266.38 30.7129V15.2048Z" fill="#CE4C19"/>
<path d="M1394.27 62.0201L1458.37 62.0201V77.5281H1394.27V62.0201Z" fill="#CE4C19"/>
<path d="M1394.27 30.7007L1458.37 30.7007V46.2087L1394.27 46.2087V30.7007Z" fill="#CE4C19"/>
<path d="M1394.27 0.00012207L1458.37 0.00012207V15.5081L1394.27 15.5081V0.00012207Z" fill="#CE4C19"/>
<path d="M883.065 15.5081H754.568V5.62668e-05H883.065V15.5081Z" fill="#CE4C19"/>
<path d="M1011.41 30.7128H882.908V15.2047H1011.41V30.7128Z" fill="#CE4C19"/>
<path d="M883.065 46.8033H754.568V31.2952H883.065V46.8033Z" fill="#CE4C19"/>
<path d="M1011.41 62.0081H882.908V46.5H1011.41V62.0081Z" fill="#CE4C19"/>
<path d="M883.065 77.516H754.568V62.008H883.065V77.516Z" fill="#CE4C19"/>
<path d="M1266.3 15.5081H1137.81V5.62668e-05H1266.3V15.5081Z" fill="#CE4C19"/>
<path d="M1266.3 46.8033H1137.81V31.2952H1266.3V46.8033Z" fill="#CE4C19"/>
<path d="M1266.3 77.516H1137.81V62.008H1266.3V77.516Z" fill="#CE4C19"/>
<path d="M1074.61 15.5081H1010.96V5.62668e-05H1074.61V15.5081Z" fill="#CE4C19"/>
<path d="M1074.61 46.8033H1010.96V31.2952H1074.61V46.8033Z" fill="#CE4C19"/>
<path d="M1074.61 77.516H1010.96V62.008H1074.61V77.516Z" fill="#CE4C19"/>
<path d="M1138.41 30.7128H1074.3V15.2047H1138.41V30.7128Z" fill="#CE4C19"/>
<path d="M1138.41 62.0081H1074.3V46.5H1138.41V62.0081Z" fill="#CE4C19"/>
<path d="M497.72 62.0201L626.216 62.0201V77.5281L497.72 77.5281V62.0201Z" fill="#CE4C19"/>
<path d="M626.072 45.9053L754.568 45.9053V61.4134L626.072 61.4134V45.9053Z" fill="#CE4C19"/>
<path d="M497.72 30.7007L626.216 30.7007V46.2087L497.72 46.2087V30.7007Z" fill="#CE4C19"/>
<path d="M626.072 15.2048L754.568 15.2048V30.7129L626.072 30.7129V15.2048Z" fill="#CE4C19"/>
<path d="M242.82 45.9053L371.317 45.9053V61.4134L242.82 61.4134V45.9053Z" fill="#CE4C19"/>
<path d="M242.82 15.2048L371.317 15.2048V30.7129L242.82 30.7129V15.2048Z" fill="#CE4C19"/>
<path d="M434.53 45.9053L498.177 45.9053V61.4134L434.53 61.4134V45.9053Z" fill="#CE4C19"/>
<path d="M434.53 15.2048L498.177 15.2048V30.7129L434.53 30.7129V15.2048Z" fill="#CE4C19"/>
<path d="M497.72 0.00012207L626.216 0.00012207V15.5081L497.72 15.5081V0.00012207Z" fill="#CE4C19"/>
<path d="M370.703 62.0201L434.807 62.0201V77.5281H370.703V62.0201Z" fill="#CE4C19"/>
<path d="M370.703 30.7007L434.807 30.7007V46.2087L370.703 46.2087V30.7007Z" fill="#CE4C19"/>
<path d="M370.703 0.00012207L434.807 0.00012207V15.5081L370.703 15.5081V0.00012207Z" fill="#CE4C19"/>
<path d="M242.747 15.5081H114.25V5.62668e-05H242.747V15.5081Z" fill="#CE4C19"/>
<path d="M242.747 46.8031H114.25V31.2951H242.747V46.8031Z" fill="#CE4C19"/>
<path d="M242.747 77.5159H114.25V62.0078H242.747V77.5159Z" fill="#CE4C19"/>
<path d="M51.0378 15.5081H-12.6086V5.62668e-05H51.0378V15.5081Z" fill="#CE4C19"/>
<path d="M51.0378 46.8031H-12.6086V31.2951H51.0378V46.8031Z" fill="#CE4C19"/>
<path d="M51.0378 77.5159H-12.6086V62.0078H51.0378V77.5159Z" fill="#CE4C19"/>
<path d="M114.853 30.7127H50.7492V15.2046H114.853V30.7127Z" fill="#CE4C19"/>
<path d="M114.853 62.0079H50.7492V46.4999H114.853V62.0079Z" fill="#CE4C19"/>
</svg>
